<?xml version="1.0" encoding="utf-8"?>
<!-- Generator: Adobe Illustrator 26.3.1, SVG Export Plug-In . SVG Version: 6.00 Build 0)  -->
<svg version="1.1" id="Calque_1" xmlns="http://www.w3.org/2000/svg" xmlns:xlink="http://www.w3.org/1999/xlink" x="0px" y="0px"
	 viewBox="0 0 425.2 425.2" style="enable-background:new 0 0 425.2 425.2;" xml:space="preserve">
<style type="text/css">
	.st0{fill:#00528C;}
	.st1{fill:#BCCF00;}
</style>
<g>
	<path class="st0" d="M103.54,300.03h20.09l0.04-89.43h0.07c0.04-3.56,1.48-6.97,4-9.48c2.56-2.56,6.03-4,9.65-4
		c3.62,0,7.09,1.44,9.65,4c2.52,2.52,4.11,5.92,4.15,9.48v56.77h0.09c0,8.95,3.56,17.54,9.89,23.87c6.33,6.33,14.92,9.89,23.87,9.89
		c8.95,0,17.54-3.56,23.87-9.89c6.33-6.33,9.89-14.91,9.89-23.87v-84.38h-20.34l0.23,84.38c-0.04,3.56-1.48,6.97-3.99,9.48
		c-2.56,2.56-6.03,4-9.65,4c-3.62,0-7.09-1.44-9.65-4c-2.52-2.52-4.2-5.92-4.24-9.48V210.6c0-8.95-3.56-17.54-9.89-23.87
		c-6.33-6.33-14.92-9.89-23.87-9.89c-8.95,0-17.54,3.55-23.87,9.89c-6.33,6.33-9.88,14.91-9.89,23.87"/>
	<path class="st0" d="M245.8,183c-5.25,0-10.28,2.08-13.99,5.8c-3.71,3.71-5.8,8.75-5.8,13.99c0,5.25,2.09,10.28,5.8,13.99
		c3.71,3.71,8.74,5.8,13.99,5.8c5.25,0,10.28-2.08,13.99-5.8c3.71-3.71,5.8-8.75,5.8-13.99c0-5.25-2.09-10.28-5.8-13.99
		C256.08,185.08,251.05,183,245.8,183z M250.92,207.87c-1.36,1.36-3.2,2.12-5.12,2.12c-1.92,0-3.76-0.76-5.12-2.12
		c-1.36-1.36-2.12-3.2-2.12-5.12c0-1.92,0.76-3.76,2.12-5.12c1.36-1.36,3.2-2.12,5.12-2.12c1.92,0,3.76,0.76,5.12,2.12
		c1.36,1.36,2.12,3.2,2.12,5.12C253.04,204.67,252.28,206.51,250.92,207.87z"/>
	<path class="st0" d="M314.28,279.96v-64.13c0-8.95-3.56-17.54-9.89-23.87c-6.33-6.33-14.92-9.89-23.87-9.89
		c-0.56,0-2.5,0.01-3.06,0.04v20.34c0.55-0.07,2.5-0.11,3.06-0.11c3.62,0,7.09,1.44,9.65,4c2.52,2.52,3.95,5.92,3.99,9.48
		l-0.17,64.07l-12.52-0.03v20.34h12.47h20.34h13.81V280L314.28,279.96z"/>
</g>
<g>
	<polygon class="st0" points="98.97,132.23 112.37,132.23 112.37,136.45 103.47,136.45 103.47,145.62 111.22,145.62 111.22,149.84 
		103.47,149.84 103.47,159.01 112.37,159.01 112.37,163.49 98.97,163.49 98.97,132.23 	"/>
	<polygon class="st0" points="117.44,132.23 121.75,132.23 127.53,148.78 127.62,148.78 133.35,132.23 137.71,132.23 137.71,163.49 
		133.21,163.49 133.21,144.48 133.13,144.48 128.67,157.91 126.43,157.91 122.02,144.48 121.93,144.48 121.93,163.49 117.44,163.49 
		117.44,132.23 	"/>
	<path class="st0" d="M144.1,132.23h6.74c1.23,0,2.32,0.16,3.26,0.48c0.94,0.32,1.79,0.89,2.56,1.71c0.77,0.82,1.29,1.78,1.59,2.87
		c0.29,1.1,0.44,2.58,0.44,4.46c0,1.35-0.08,2.52-0.24,3.51c-0.16,1-0.51,1.92-1.04,2.76c-0.62,1-1.45,1.79-2.49,2.37
		c-1.04,0.59-2.39,0.88-4.03,0.88h-2.29v12.2h-4.49V132.23L144.1,132.23z M148.59,147.07h2.16c1.82,0,2.9-0.49,3.22-1.47
		c0.32-0.98,0.48-2.25,0.48-3.8c0-1.46-0.15-2.72-0.44-3.78c-0.29-1.05-1.32-1.58-3.09-1.58h-2.34V147.07L148.59,147.07z"/>
	<polygon class="st0" points="164.2,132.23 168.69,132.23 168.69,159.01 177.59,159.01 177.59,163.49 164.2,163.49 164.2,132.23 	
		"/>
	<path class="st0" d="M187.64,132.23h3.74l7.01,31.26h-4.49l-1.32-6.71h-6.12l-1.32,6.71h-4.49L187.64,132.23L187.64,132.23z
		 M189.54,141.23h-0.09l-2.2,11.33h4.49L189.54,141.23L189.54,141.23z"/>
	<path class="st0" d="M217.04,156.51c0,1.93-0.69,3.61-2.07,5.05c-1.38,1.43-3.07,2.15-5.07,2.15c-0.21,0-0.41-0.01-0.62-0.02
		c-0.21-0.02-0.41-0.04-0.62-0.07c-1.53-0.15-2.94-0.76-4.23-1.84c-1.29-1.08-1.94-2.88-1.94-5.39v-17.18
		c0-2.06,0.68-3.78,2.03-5.17c1.35-1.39,3.11-2.08,5.29-2.08c2.09,0,3.81,0.71,5.18,2.12c1.37,1.41,2.05,3.21,2.05,5.39v1.76h-4.49
		v-1.49c0-0.89-0.25-1.66-0.75-2.31c-0.5-0.65-1.17-0.98-2.03-0.98c-1.12,0-1.86,0.35-2.23,1.04c-0.37,0.7-0.55,1.58-0.55,2.64
		v15.94c0,0.91,0.21,1.67,0.62,2.28c0.41,0.61,1.12,0.92,2.12,0.92c0.12,0,0.23-0.01,0.35-0.02c0.12-0.01,0.23-0.04,0.35-0.06
		c0.53-0.12,1.01-0.41,1.45-0.88c0.44-0.47,0.66-1.2,0.66-2.2v-1.54h4.49V156.51L217.04,156.51z"/>
	<polygon class="st0" points="222.85,132.23 236.25,132.23 236.25,136.45 227.35,136.45 227.35,145.62 235.11,145.62 235.11,149.84 
		227.35,149.84 227.35,159.01 236.25,159.01 236.25,163.49 222.85,163.49 222.85,132.23 	"/>
	<polygon class="st0" points="241.32,132.23 245.64,132.23 251.41,148.78 251.5,148.78 257.23,132.23 261.59,132.23 261.59,163.49 
		257.09,163.49 257.09,144.48 257.01,144.48 252.56,157.91 250.31,157.91 245.9,144.48 245.81,144.48 245.81,163.49 241.32,163.49 
		241.32,132.23 	"/>
	<polygon class="st0" points="267.98,132.23 281.38,132.23 281.38,136.45 272.48,136.45 272.48,145.62 280.23,145.62 280.23,149.84 
		272.48,149.84 272.48,159.01 281.38,159.01 281.38,163.49 267.98,163.49 267.98,132.23 	"/>
	<polygon class="st0" points="286.27,132.23 290.59,132.23 297.38,151.07 297.46,151.07 297.46,132.23 301.96,132.23 301.96,163.49 
		297.73,163.49 290.86,144.7 290.77,144.7 290.77,163.49 286.27,163.49 286.27,132.23 	"/>
	<polygon class="st0" points="311.13,136.45 305.93,136.45 305.93,132.23 320.82,132.23 320.82,136.45 315.62,136.45 315.62,163.49 
		311.13,163.49 311.13,136.45 	"/>
</g>
<polygon class="st1" points="113,33.04 33.29,33.04 33.29,112.83 53.69,112.83 53.69,53.44 113,53.44 "/>
<path class="st1" d="M368.21,56.27c-7.28-7.28-15.76-13-25.21-16.99c-9.78-4.14-20.17-6.24-30.87-6.24h-0.55v20.4h0.55
	c15.74,0,30.53,6.13,41.66,17.25c11.13,11.13,17.25,25.92,17.25,41.66v0.47h20.4v-0.47c0-10.7-2.1-21.09-6.24-30.87
	C381.21,72.03,375.49,63.55,368.21,56.27z"/>
<path class="st1" d="M53.69,311.89v-0.47h-20.4v0.47c0,10.7,2.1,21.09,6.24,30.87c3.99,9.45,9.71,17.93,16.99,25.21
	c7.28,7.28,15.76,13,25.21,16.99c9.78,4.14,20.17,6.24,30.87,6.24h0.4v-20.4h-0.4c-15.74,0-30.53-6.13-41.66-17.25
	C59.82,342.42,53.69,327.62,53.69,311.89z"/>
<polygon class="st1" points="391.44,311.41 371.04,311.41 371.04,370.8 311.59,370.8 311.59,391.2 391.44,391.2 "/>
</svg>
